HIERARCHY
ROOT mixamorig:Hips
{
	OFFSET 0.000000 0.397652 967.588257
	CHANNELS 6 Xposition Yposition Zposition Xrotation Yrotation Zrotation
	JOINT mixamorig:Spine
	{
		OFFSET 0.000031 9.332268 96.731445
		CHANNELS 6 Xposition Yposition Zposition Xrotation Yrotation Zrotation
		JOINT mixamorig:Spine1
		{
			OFFSET 0.000000 9.718329 111.790283
			CHANNELS 3 Xrotation Yrotation Zrotation
			JOINT mixamorig:Spine2
			{
				OFFSET 0.000000 11.185614 128.667847
				CHANNELS 3 Xrotation Yrotation Zrotation
				JOINT mixamorig:Neck
				{
					OFFSET 0.000000 11.280855 144.446411
					CHANNELS 6 Xposition Yposition Zposition Xrotation Yrotation Zrotation
					JOINT mixamorig:Head
					{
						OFFSET 0.000000 -5.374390 35.128662
						CHANNELS 6 Xposition Yposition Zposition Xrotation Yrotation Zrotation
						JOINT mixamorig:HeadTop_End
						{
							OFFSET 0.000000 -33.815300 241.900635
							CHANNELS 6 Xposition Yposition Zposition Xrotation Yrotation Zrotation
							End Site
							{
								OFFSET 0.000000 0.075751 184.607910
							}
						}
						JOINT mixamorig:LeftEye
						{
							OFFSET 32.172596 -110.007034 103.953613
							CHANNELS 6 Xposition Yposition Zposition Xrotation Yrotation Zrotation
							End Site
							{
								OFFSET 0.000000 0.075859 184.607666
							}
						}
						JOINT mixamorig:RightEye
						{
							OFFSET -32.625195 -110.007050 103.962646
							CHANNELS 6 Xposition Yposition Zposition Xrotation Yrotation Zrotation
							End Site
							{
								OFFSET 0.000000 0.075928 184.607666
							}
						}
					}
				}
				JOINT mixamorig:LeftShoulder
				{
					OFFSET 69.790291 11.520010 120.819580
					CHANNELS 6 Xposition Yposition Zposition Xrotation Yrotation Zrotation
					JOINT mixamorig:LeftArm
					{
						OFFSET 143.759308 0.125023 -23.863037
						CHANNELS 3 Xrotation Yrotation Zrotation
						JOINT mixamorig:LeftForeArm
						{
							OFFSET 258.965637 0.000000 0.000000
							CHANNELS 3 Xrotation Yrotation Zrotation
							JOINT mixamorig:LeftHand
							{
								OFFSET 268.866760 0.000000 0.000000
								CHANNELS 3 Xrotation Yrotation Zrotation
								JOINT mixamorig:LeftHandPinky1
								{
									OFFSET 87.101868 53.394665 -0.191162
									CHANNELS 6 Xposition Yposition Zposition Xrotation Yrotation Zrotation
									JOINT mixamorig:LeftHandPinky2
									{
										OFFSET 20.604248 0.000000 0.000000
										CHANNELS 3 Xrotation Yrotation Zrotation
										JOINT mixamorig:LeftHandPinky3
										{
											OFFSET 17.707581 0.000000 0.000000
											CHANNELS 3 Xrotation Yrotation Zrotation
											JOINT mixamorig:LeftHandPinky4
											{
												OFFSET 19.202087 0.000000 0.000000
												CHANNELS 3 Xrotation Yrotation Zrotation
												End Site
												{
													OFFSET 19.202087 0.000000 0.000000
												}
											}
										}
									}
								}
								JOINT mixamorig:LeftHandRing1
								{
									OFFSET 104.340210 29.666088 -0.662720
									CHANNELS 6 Xposition Yposition Zposition Xrotation Yrotation Zrotation
									JOINT mixamorig:LeftHandRing2
									{
										OFFSET 26.164307 0.000000 0.000000
										CHANNELS 3 Xrotation Yrotation Zrotation
										JOINT mixamorig:LeftHandRing3
										{
											OFFSET 21.622192 0.000000 0.000000
											CHANNELS 3 Xrotation Yrotation Zrotation
											JOINT mixamorig:LeftHandRing4
											{
												OFFSET 24.893311 0.000000 0.000000
												CHANNELS 3 Xrotation Yrotation Zrotation
												End Site
												{
													OFFSET 24.893311 0.000000 0.000000
												}
											}
										}
									}
								}
								JOINT mixamorig:LeftHandMiddle1
								{
									OFFSET 116.450012 0.000000 0.000000
									CHANNELS 6 Xposition Yposition Zposition Xrotation Yrotation Zrotation
									JOINT mixamorig:LeftHandMiddle2
									{
										OFFSET 28.784912 0.000000 0.000000
										CHANNELS 3 Xrotation Yrotation Zrotation
										JOINT mixamorig:LeftHandMiddle3
										{
											OFFSET 23.377075 0.000000 0.000000
											CHANNELS 3 Xrotation Yrotation Zrotation
											JOINT mixamorig:LeftHandMiddle4
											{
												OFFSET 29.789612 0.000000 0.000000
												CHANNELS 3 Xrotation Yrotation Zrotation
												End Site
												{
													OFFSET 29.789612 0.000000 0.000000
												}
											}
										}
									}
								}
								JOINT mixamorig:LeftHandIndex1
								{
									OFFSET 114.299683 -34.524841 -0.469971
									CHANNELS 6 Xposition Yposition Zposition Xrotation Yrotation Zrotation
									JOINT mixamorig:LeftHandIndex2
									{
										OFFSET 24.405151 0.000000 0.000000
										CHANNELS 3 Xrotation Yrotation Zrotation
										JOINT mixamorig:LeftHandIndex3
										{
											OFFSET 20.377502 0.000000 0.000000
											CHANNELS 3 Xrotation Yrotation Zrotation
											JOINT mixamorig:LeftHandIndex4
											{
												OFFSET 24.587708 0.000000 0.000000
												CHANNELS 3 Xrotation Yrotation Zrotation
												End Site
												{
													OFFSET 24.587708 0.000000 0.000000
												}
											}
										}
									}
								}
								JOINT mixamorig:LeftHandThumb1
								{
									OFFSET 27.695435 -23.022173 -32.867065
									CHANNELS 6 Xposition Yposition Zposition Xrotation Yrotation Zrotation
									JOINT mixamorig:LeftHandThumb2
									{
										OFFSET 30.385803 -17.550455 -17.536011
										CHANNELS 6 Xposition Yposition Zposition Xrotation Yrotation Zrotation
										JOINT mixamorig:LeftHandThumb3
										{
											OFFSET 31.180664 -18.009558 -17.994629
											CHANNELS 3 Xrotation Yrotation Zrotation
											JOINT mixamorig:LeftHandThumb4
											{
												OFFSET 21.373962 -12.345375 -12.335205
												CHANNELS 3 Xrotation Yrotation Zrotation
												End Site
												{
													OFFSET 21.374084 -12.345289 -12.335449
												}
											}
										}
									}
								}
							}
						}
					}
				}
				JOINT mixamorig:RightShoulder
				{
					OFFSET -69.078392 10.946230 120.819824
					CHANNELS 6 Xposition Yposition Zposition Xrotation Yrotation Zrotation
					JOINT mixamorig:RightArm
					{
						OFFSET -144.806183 -0.681892 -23.862671
						CHANNELS 3 Xrotation Yrotation Zrotation
						JOINT mixamorig:RightForeArm
						{
							OFFSET -259.772034 0.000000 0.000000
							CHANNELS 3 Xrotation Yrotation Zrotation
							JOINT mixamorig:RightHand
							{
								OFFSET -272.703766 0.000000 0.000000
								CHANNELS 3 Xrotation Yrotation Zrotation
								JOINT mixamorig:RightHandThumb1
								{
									OFFSET -26.220764 -23.595608 -31.879150
									CHANNELS 6 Xposition Yposition Zposition Xrotation Yrotation Zrotation
									JOINT mixamorig:RightHandThumb2
									{
										OFFSET -29.154907 -16.839527 -16.825806
										CHANNELS 6 Xposition Yposition Zposition Xrotation Yrotation Zrotation
										JOINT mixamorig:RightHandThumb3
										{
											OFFSET -29.892456 -17.265484 -17.251221
											CHANNELS 6 Xposition Yposition Zposition Xrotation Yrotation Zrotation
											JOINT mixamorig:RightHandThumb4
											{
												OFFSET -19.634216 -11.340481 -11.331177
												CHANNELS 3 Xrotation Yrotation Zrotation
												End Site
												{
													OFFSET -19.634155 -11.340462 -11.331177
												}
											}
										}
									}
								}
								JOINT mixamorig:RightHandIndex1
								{
									OFFSET -110.723389 -33.243320 0.390747
									CHANNELS 6 Xposition Yposition Zposition Xrotation Yrotation Zrotation
									JOINT mixamorig:RightHandIndex2
									{
										OFFSET -25.451904 0.000000 0.000000
										CHANNELS 3 Xrotation Yrotation Zrotation
										JOINT mixamorig:RightHandIndex3
										{
											OFFSET -20.847168 0.000000 0.000000
											CHANNELS 3 Xrotation Yrotation Zrotation
											JOINT mixamorig:RightHandIndex4
											{
												OFFSET -22.926208 0.000000 0.000000
												CHANNELS 3 Xrotation Yrotation Zrotation
												End Site
												{
													OFFSET -22.926208 0.000000 0.000000
												}
											}
										}
									}
								}
								JOINT mixamorig:RightHandMiddle1
								{
									OFFSET -114.966125 0.000000 0.000000
									CHANNELS 6 Xposition Yposition Zposition Xrotation Yrotation Zrotation
									JOINT mixamorig:RightHandMiddle2
									{
										OFFSET -29.163940 0.000000 0.000000
										CHANNELS 3 Xrotation Yrotation Zrotation
										JOINT mixamorig:RightHandMiddle3
										{
											OFFSET -24.051331 0.000000 0.000000
											CHANNELS 3 Xrotation Yrotation Zrotation
											JOINT mixamorig:RightHandMiddle4
											{
												OFFSET -29.831299 0.000000 0.000000
												CHANNELS 3 Xrotation Yrotation Zrotation
												End Site
												{
													OFFSET -29.831299 0.000000 0.000000
												}
											}
										}
									}
								}
								JOINT mixamorig:RightHandRing1
								{
									OFFSET -106.183838 30.576897 0.867798
									CHANNELS 6 Xposition Yposition Zposition Xrotation Yrotation Zrotation
									JOINT mixamorig:RightHandRing2
									{
										OFFSET -25.971924 0.000000 0.000000
										CHANNELS 3 Xrotation Yrotation Zrotation
										JOINT mixamorig:RightHandRing3
										{
											OFFSET -21.707886 0.000000 0.000000
											CHANNELS 3 Xrotation Yrotation Zrotation
											JOINT mixamorig:RightHandRing4
											{
												OFFSET -21.446777 0.000000 0.000000
												CHANNELS 3 Xrotation Yrotation Zrotation
												End Site
												{
													OFFSET -21.446777 0.000000 0.000000
												}
											}
										}
									}
								}
								JOINT mixamorig:RightHandPinky1
								{
									OFFSET -88.638245 55.841194 -0.037964
									CHANNELS 6 Xposition Yposition Zposition Xrotation Yrotation Zrotation
									JOINT mixamorig:RightHandPinky2
									{
										OFFSET -19.054565 0.000000 0.000000
										CHANNELS 3 Xrotation Yrotation Zrotation
										JOINT mixamorig:RightHandPinky3
										{
											OFFSET -18.459290 0.000000 0.000000
											CHANNELS 3 Xrotation Yrotation Zrotation
											JOINT mixamorig:RightHandPinky4
											{
												OFFSET -18.842529 0.000000 0.000000
												CHANNELS 3 Xrotation Yrotation Zrotation
												End Site
												{
													OFFSET -18.842529 0.000000 0.000000
												}
											}
										}
									}
								}
							}
						}
					}
				}
			}
		}
	}
	JOINT mixamorig:RightUpLeg
	{
		OFFSET -112.362793 -5.201166 -53.494385
		CHANNELS 6 Xposition Yposition Zposition Xrotation Yrotation Zrotation
		JOINT mixamorig:RightLeg
		{
			OFFSET -0.000031 -16.498615 -398.659180
			CHANNELS 3 Xrotation Yrotation Zrotation
			JOINT mixamorig:RightFoot
			{
				OFFSET -0.000031 42.156204 -405.779236
				CHANNELS 3 Xrotation Yrotation Zrotation
				JOINT mixamorig:RightToeBase
				{
					OFFSET -11.908974 -153.147858 -105.511368
					CHANNELS 3 Xrotation Yrotation Zrotation
					JOINT mixamorig:RightToe_End
					{
						OFFSET -4.373909 -77.734619 -0.614441
						CHANNELS 3 Xrotation Yrotation Zrotation
						End Site
						{
							OFFSET -4.373917 -77.734604 -0.614450
						}
					}
				}
			}
		}
	}
	JOINT mixamorig:LeftUpLeg
	{
		OFFSET 111.449074 -5.201073 -53.494507
		CHANNELS 6 Xposition Yposition Zposition Xrotation Yrotation Zrotation
		JOINT mixamorig:LeftLeg
		{
			OFFSET 0.000023 -16.498587 -398.658691
			CHANNELS 3 Xrotation Yrotation Zrotation
			JOINT mixamorig:LeftFoot
			{
				OFFSET 0.000023 42.156281 -405.779968
				CHANNELS 3 Xrotation Yrotation Zrotation
				JOINT mixamorig:LeftToeBase
				{
					OFFSET 11.908859 -153.147461 -105.511017
					CHANNELS 6 Xposition Yposition Zposition Xrotation Yrotation Zrotation
					JOINT mixamorig:LeftToe_End
					{
						OFFSET 4.373550 -77.734360 -0.614578
						CHANNELS 3 Xrotation Yrotation Zrotation
						End Site
						{
							OFFSET 4.373543 -77.734329 -0.614555
						}
					}
				}
			}
		}
	}
}
MOTION
Frames: 4
Frame Time: 0.033333
50.442135 -7.157844 938.673462 0.042696 -5.821281 -2.715365 0.000023 9.332273 96.731491 3.888161 0.715063 -0.144627 1.370510 1.536274 -0.310580 -3.120839 2.049672 -0.301172 0.000004 11.280832 144.446472 -4.228805 3.354073 0.557497 0.000007 -5.374389 35.128674 -1.871126 1.282589 0.652881 -0.000004 -33.815315 241.900635 -0.000000 -0.000000 0.000000 32.172607 -110.007065 103.953369 -0.000000 -0.000000 -0.000000 -32.625195 -110.007050 103.962280 0.000000 0.000000 -0.000000 69.790291 11.519999 120.819382 7.784957 7.397258 -14.425517 -0.684259 70.041486 9.425105 -0.002611 -0.010978 -27.673473 37.433566 1.646211 -5.592862 87.101791 53.394695 -0.191308 -4.470153 30.065096 15.259831 -0.995769 28.998487 3.044967 -0.104052 6.653497 1.531062 0.000001 -0.000003 -0.000003 104.340164 29.666126 -0.662759 -4.363244 33.187763 9.152787 -0.186319 16.846952 2.052894 0.032635 12.265437 1.204285 -0.000002 0.000001 -0.000002 116.450096 -0.000008 0.000062 -1.598247 16.037071 7.604410 -1.131296 26.875990 3.830843 -0.250686 15.803707 1.895131 -0.000001 -0.000001 -0.000001 114.299728 -34.524826 -0.470002 8.850601 9.298495 1.420187 -0.479402 16.829347 2.571332 -0.032456 3.878858 0.180144 0.000001 0.000000 -0.000000 27.695606 -23.022142 -32.867115 30.761830 -32.288367 8.150247 30.385845 -17.550457 -17.535828 -10.214264 14.159860 29.114825 7.275642 -4.314644 -13.210940 0.000001 0.000001 0.000003 -69.078400 10.946216 120.819748 -0.395229 -0.002029 9.937226 32.476330 -72.297511 29.069176 -0.006782 0.016591 44.821153 24.214023 20.791226 27.491711 -26.220650 -23.595581 -31.879129 17.941273 13.665639 -7.655919 -29.154936 -16.839462 -16.825750 5.484966 14.888084 -4.709795 -29.892464 -17.265472 -17.251305 -12.607508 -8.963350 7.795133 0.000000 -0.000004 0.000000 -110.723495 -33.243317 0.390632 -0.510954 -8.682053 1.600100 -1.044613 -26.366798 -3.743599 -0.341182 -17.101537 -0.574624 -0.000001 -0.000001 0.000001 -114.966049 0.000000 -0.000145 -2.229466 -20.904141 -4.197315 -2.230494 -37.960173 -5.534109 -1.028807 -31.065377 -3.579930 0.000001 -0.000002 -0.000000 -106.183891 30.576836 0.867738 -5.727004 -38.615762 -11.527028 -0.435326 -23.933814 -2.843794 -0.211001 -20.374343 -0.232408 0.000001 0.000000 -0.000004 -88.638092 55.841240 -0.038065 -7.512358 -43.545762 -14.688218 -3.368215 -48.960589 -6.585738 -2.826986 -43.269494 -3.563028 0.000001 0.000001 0.000001 -112.362793 -5.201179 -53.494408 -24.933824 6.307220 -2.902440 57.837475 4.684589 8.928561 3.856960 -4.556690 -13.890052 -20.961876 -3.071104 -1.179227 0.000001 -0.000000 0.000000 111.449066 -5.201074 -53.494476 -10.385187 9.189195 6.611014 17.652376 0.222664 -1.026934 -6.768978 -4.751533 -1.107381 11.908851 -153.147446 -105.511009 -3.878169 -0.000008 -0.000033 0.000000 -0.000000 -0.000000 
47.561859 -6.153850 941.154419 0.726426 -4.787897 -1.135074 0.000036 9.332273 96.731529 3.292045 0.146380 -0.638382 1.437203 1.153589 -1.373438 -3.067502 1.699478 -1.352632 -0.000004 11.280859 144.446457 -3.806584 3.147362 0.668188 -0.000011 -5.374381 35.128864 -1.544040 1.395359 1.530052 -0.000007 -33.815304 241.900635 0.000000 0.000000 0.000000 32.172596 -110.007050 103.953491 0.000000 0.000000 0.000000 -32.625202 -110.007042 103.962402 0.000000 0.000000 0.000000 69.790283 11.520016 120.819695 7.815127 5.677422 -16.515990 6.566753 68.759200 -0.254597 -0.003035 -0.011726 -29.874428 34.287177 -3.378463 -6.474454 87.101616 53.394650 -0.191161 -4.178494 28.631624 14.571625 -1.003307 29.104706 3.059271 -0.106240 6.759918 1.541969 0.000002 0.000001 -0.000000 104.340141 29.666096 -0.662858 -4.035163 31.595325 8.949720 -0.186297 16.845753 2.052756 0.032646 12.264719 1.204218 0.000001 0.000001 -0.000000 116.449951 -0.000002 0.000033 -1.340816 14.089495 7.254699 -1.125301 26.798317 3.820373 -0.248241 15.725460 1.886676 0.000002 0.000000 -0.000001 114.299637 -34.524872 -0.470106 8.698132 5.849171 1.598846 -0.481030 16.863821 2.575284 -0.032718 3.913938 0.183696 -0.000000 0.000000 0.000000 27.695400 -23.022148 -32.867081 30.812722 -31.575784 8.127665 30.385941 -17.550518 -17.535799 -10.333991 13.863884 28.422260 7.166512 -7.092449 -13.600552 -0.000001 -0.000002 0.000006 -69.078423 10.946215 120.819794 -0.348457 -0.919047 9.289641 24.829121 -74.116643 19.145833 -0.005925 0.015667 41.764851 28.827800 20.203532 26.579377 -26.220783 -23.595594 -31.879156 18.352433 13.320618 -7.682590 -29.155022 -16.839514 -16.825792 5.579715 15.113674 -4.342617 -29.892445 -17.265528 -17.251362 -12.575316 -8.984816 7.589471 0.000000 -0.000001 -0.000003 -110.723503 -33.243298 0.390798 -0.473172 -8.258686 1.323103 -1.058302 -26.553549 -3.768527 -0.347367 -17.288600 -0.595508 -0.000001 -0.000001 -0.000002 -114.966103 -0.000004 -0.000051 -2.116280 -20.089799 -4.535308 -2.226884 -37.931309 -5.528997 -1.026816 -31.037947 -3.576147 -0.000001 0.000001 -0.000004 -106.183716 30.576897 0.867810 -5.632022 -38.235133 -11.497068 -0.432532 -23.868892 -2.836218 -0.209154 -20.309335 -0.225262 0.000002 0.000002 -0.000001 -88.638344 55.841217 -0.037858 -7.441442 -43.290921 -14.686636 -3.383293 -49.039969 -6.605108 -2.838918 -43.348984 -3.579429 0.000001 -0.000000 -0.000000 -112.362755 -5.201174 -53.494305 -29.886668 4.436868 -2.865139 49.449200 4.482362 9.342838 2.355384 -5.240611 -16.133329 -16.296927 -0.287963 -0.085908 -0.000002 -0.000000 -0.000000 111.449043 -5.201064 -53.494469 -6.852233 7.820388 7.514254 17.149574 0.432012 -4.147305 -9.422357 -5.051711 -1.271141 11.908865 -153.147415 -105.511009 -4.665735 -0.000005 -0.000040 -0.000000 -0.000000 0.000000 
43.108437 -6.134242 941.639587 1.162560 -3.224926 0.838593 0.000040 9.332266 96.731285 2.698189 -0.613462 -1.084864 1.668219 0.752437 -2.400356 -2.859212 1.347970 -2.374663 -0.000007 11.280855 144.446228 -3.761958 2.629225 0.558271 -0.000000 -5.374393 35.128582 -1.406697 1.263758 1.849340 -0.000003 -33.815311 241.900635 -0.000000 -0.000000 -0.000000 32.172600 -110.007050 103.953735 -0.000000 -0.000000 0.000000 -32.625195 -110.007050 103.962646 0.000000 -0.000000 0.000000 69.790283 11.520018 120.819221 7.718035 3.104709 -18.787974 8.982832 67.372050 -4.905637 -0.003711 -0.012871 -32.937371 30.392262 -5.487479 -8.894689 87.101715 53.394627 -0.191333 -4.095786 28.213114 14.338051 -1.004669 29.123927 3.061852 -0.106640 6.779187 1.543957 0.000003 0.000001 -0.000000 104.340393 29.666088 -0.662843 -3.916370 30.981260 8.929695 -0.186322 16.846578 2.052836 0.032624 12.266003 1.204329 0.000001 -0.000000 0.000002 116.450005 -0.000034 0.000137 -1.259472 13.454366 7.160038 -1.125120 26.795997 3.820076 -0.248171 15.722966 1.886408 -0.000000 0.000001 -0.000001 114.299736 -34.524872 -0.469951 8.307209 4.065741 1.784603 -0.481083 16.864895 2.575409 -0.032715 3.915372 0.183858 0.000000 -0.000000 0.000000 27.695551 -23.022104 -32.866890 30.888236 -30.809190 8.153823 30.385822 -17.550514 -17.536102 -10.528329 13.722939 27.689874 7.033012 -7.793894 -14.293152 0.000001 -0.000000 0.000005 -69.078407 10.946232 120.819649 -0.316605 -2.588033 7.766285 15.796802 -74.481519 7.599448 -0.005024 0.014608 38.384806 33.105503 18.667013 24.507048 -26.220676 -23.595589 -31.879253 18.663403 13.320352 -8.300200 -29.154915 -16.839529 -16.825872 5.699620 15.344358 -3.541023 -29.892370 -17.265469 -17.251259 -12.530036 -9.015555 7.301768 -0.000002 0.000001 -0.000001 -110.723404 -33.243301 0.390793 -0.328375 -6.817569 1.196418 -1.069896 -26.710483 -3.789555 -0.352604 -17.445775 -0.613114 0.000001 0.000002 0.000000 -114.966133 0.000038 -0.000126 -1.865557 -18.299170 -4.784893 -2.224337 -37.911146 -5.525419 -1.025489 -31.019591 -3.573635 -0.000000 0.000002 -0.000005 -106.183846 30.576889 0.867908 -5.357519 -37.107834 -11.401009 -0.427198 -23.746667 -2.821937 -0.205718 -20.186983 -0.211865 -0.000003 0.000001 0.000001 -88.638229 55.841240 -0.038079 -7.119183 -42.074361 -14.739132 -3.378524 -49.014821 -6.598968 -2.835131 -43.323784 -3.574209 -0.000001 -0.000000 -0.000001 -112.362770 -5.201160 -53.494541 -34.257066 2.676170 -4.349848 38.740331 4.576818 9.082926 3.056347 -6.019231 -17.018746 -1.379626 -0.000011 0.000001 -0.000001 0.000000 0.000000 111.449059 -5.201066 -53.494648 -3.432838 5.409706 8.499001 17.263359 0.580844 -6.920492 -12.073771 -5.004033 -3.219853 11.908886 -153.147415 -105.511009 -5.839497 -0.000007 -0.000051 0.000000 0.000000 -0.000000 
39.066734 -7.303562 937.997192 1.186077 -1.979723 2.684134 0.000024 9.332274 96.731567 2.209801 -0.877757 -1.482926 2.160783 0.248088 -3.147613 -2.368577 0.898819 -3.148463 0.000004 11.280848 144.446518 -4.176725 2.205539 0.381459 0.000002 -5.374385 35.128708 -1.565309 0.995590 1.704155 0.000003 -33.815300 241.900513 -0.000000 0.000000 -0.000000 32.172607 -110.007042 103.953369 -0.000000 0.000000 -0.000000 -32.625195 -110.007034 103.962280 0.000000 -0.000000 -0.000000 69.790298 11.520014 120.819527 7.501333 0.346273 -21.198221 7.841458 66.016183 -5.437131 -0.004732 -0.014295 -37.252033 24.368216 -6.036613 -10.837996 87.101791 53.394672 -0.191236 -4.106779 28.279575 14.200573 -1.000608 29.066799 3.054133 -0.105460 6.721940 1.538083 0.000001 -0.000000 -0.000001 104.340218 29.666088 -0.662741 -3.914697 30.934456 9.049496 -0.186359 16.847809 2.052988 0.032607 12.267571 1.204508 -0.000001 0.000002 -0.000000 116.449921 0.000010 0.000065 -1.259708 13.467380 7.042611 -1.126252 26.810816 3.822041 -0.248618 15.737314 1.887959 -0.000002 -0.000001 -0.000000 114.299683 -34.524834 -0.470010 7.736983 3.338646 1.997907 -0.478990 16.820164 2.570293 -0.032396 3.870471 0.179298 -0.000001 -0.000002 -0.000001 27.695404 -23.022102 -32.867142 30.983528 -29.997146 8.220858 30.385794 -17.550484 -17.535784 -10.763834 13.657890 26.911249 6.851121 -7.924218 -15.329899 0.000001 0.000005 0.000000 -69.078384 10.946210 120.819778 -0.374882 -4.365527 5.625979 8.186726 -73.758571 -3.265175 -0.004390 0.013780 35.818612 36.336203 15.588418 21.752385 -26.220715 -23.595579 -31.879148 19.227438 13.208554 -9.278001 -29.155069 -16.839397 -16.825920 5.637638 15.788493 -2.200581 -29.892462 -17.265533 -17.251465 -12.475450 -9.053306 6.956918 0.000002 -0.000001 -0.000002 -110.723557 -33.243347 0.390672 -0.111174 -4.763590 1.347473 -1.098286 -27.090221 -3.840685 -0.365547 -17.826104 -0.655798 -0.000001 -0.000000 0.000002 -114.966225 -0.000004 -0.000202 -1.561630 -16.047936 -4.912989 -2.219487 -37.872347 -5.518567 -1.022819 -30.982875 -3.568607 -0.000000 -0.000002 -0.000000 -106.184021 30.576889 0.867750 -4.935871 -35.315442 -11.149063 -0.427762 -23.760133 -2.823512 -0.206089 -20.200325 -0.213307 -0.000000 -0.000002 0.000001 -88.638420 55.841209 -0.038014 -6.735570 -40.690490 -14.550074 -3.425227 -49.259652 -6.658961 -2.872206 -43.568961 -3.625076 -0.000001 -0.000000 0.000001 -112.362793 -5.201186 -53.494370 -37.161420 1.934815 -7.530161 26.643598 4.590464 9.357703 2.575514 -5.896297 -13.706122 -2.721904 -0.000022 -0.000012 0.000000 0.000000 0.000001 111.449059 -5.201068 -53.494545 0.064045 2.970247 9.454735 17.942630 0.714253 -6.977975 -14.913679 -4.221158 -7.346389 11.908844 -153.147446 -105.511017 -7.600465 -0.000008 -0.000066 0.000000 -0.000000 0.000000 
